<svg width="103" height="25" viewBox="0 0 103 25" fill="none" xmlns="http://www.w3.org/2000/svg">
<g opacity="0.5">
<path d="M37.4827 17.6055H35.0483V11.3224C35.0483 10.6219 34.8759 10.0715 34.5312 9.6712C34.1865 9.25661 33.7126 9.04932 33.1094 9.04932C32.42 9.04932 31.8814 9.27806 31.4936 9.73553C31.1202 10.193 30.9335 10.822 30.9335 11.6226V17.6055H28.4775V7.09792H30.8904V8.02001C31.5511 7.23373 32.4631 6.84059 33.6264 6.84059C34.9334 6.84059 35.9172 7.29806 36.5778 8.21301C37.3965 7.29806 38.4952 6.84059 39.874 6.84059C41.2527 6.84059 42.294 7.24088 42.9978 8.04145C43.7159 8.82773 44.0749 9.97856 44.0749 11.4939V17.6055H41.619V11.3224C41.619 10.6219 41.4466 10.0715 41.1019 9.6712C40.7572 9.25661 40.2833 9.04932 39.6801 9.04932C38.9907 9.04932 38.4521 9.2852 38.0643 9.75697C37.6765 10.2144 37.4827 10.8363 37.4827 11.6226V17.6055Z" fill="black"/>
<path d="M55.8071 12.223L55.7856 13.0808H48.5686C48.626 13.8671 48.9061 14.4889 49.4087 14.9464C49.9114 15.4039 50.5577 15.6326 51.3476 15.6326C52.4823 15.6326 53.3871 15.1394 54.0621 14.153L55.7209 15.6969C54.6007 17.1265 53.1429 17.8413 51.3476 17.8413C49.7534 17.8413 48.4752 17.341 47.5129 16.3403C46.5363 15.3253 46.048 14.0172 46.048 12.416C46.048 10.8578 46.4932 9.53538 47.3837 8.44889C48.2885 7.37669 49.4877 6.84059 50.9814 6.84059C52.5756 6.84059 53.7749 7.36954 54.5791 8.42744C55.3978 9.48535 55.8071 10.7505 55.8071 12.223ZM51.003 9.07076C50.3854 9.07076 49.8755 9.26376 49.4734 9.64975C49.0856 10.0357 48.8271 10.529 48.6978 11.1294H53.2004C53.186 10.5432 52.9921 10.0572 52.6187 9.6712C52.2453 9.27091 51.7067 9.07076 51.003 9.07076Z" fill="black"/>
<path d="M62.826 6.84059C64.0037 6.84059 64.9876 7.18369 65.7775 7.8699V2.57324H68.2334V17.6055H65.8206V16.6619C65.0737 17.4482 64.0756 17.8413 62.826 17.8413C61.3324 17.8413 60.0972 17.3267 59.1206 16.2974C58.1583 15.2538 57.6772 13.9385 57.6772 12.3517C57.6772 10.7648 58.1583 9.44961 59.1206 8.406C60.0829 7.36239 61.318 6.84059 62.826 6.84059ZM65.0665 9.94997C64.5639 9.32094 63.8745 9.00643 62.9984 9.00643C62.1223 9.00643 61.4329 9.32094 60.9302 9.94997C60.4275 10.579 60.1762 11.3796 60.1762 12.3517C60.1762 13.3238 60.4275 14.1244 60.9302 14.7534C61.4329 15.3824 62.1223 15.6969 62.9984 15.6969C63.8745 15.6969 64.5639 15.3824 65.0665 14.7534C65.5692 14.1244 65.8206 13.3238 65.8206 12.3517C65.8206 11.3796 65.5692 10.579 65.0665 9.94997Z" fill="black"/>
<path d="M70.722 7.09792H73.1779V13.381C73.1779 14.0815 73.3503 14.639 73.695 15.0536C74.0397 15.4539 74.528 15.6541 75.1599 15.6541C75.835 15.6541 76.3664 15.4182 76.7541 14.9464C77.1563 14.4603 77.3574 13.817 77.3574 13.0165V7.09792H79.8133V17.6055H77.4004V16.7477C76.7254 17.4768 75.8134 17.8413 74.6644 17.8413C73.458 17.8413 72.4957 17.4339 71.7776 16.619C71.0739 15.7899 70.722 14.6533 70.722 13.2094V7.09792Z" fill="black"/>
<path d="M86.8758 13.6383L85.4755 13.2952C83.3355 12.7949 82.2655 11.6869 82.2655 9.97141C82.2655 9.02788 82.6246 8.27019 83.3427 7.69835C84.0608 7.12651 84.9872 6.84059 86.1218 6.84059C87.6442 6.84059 88.9727 7.42673 90.1073 8.599L88.5347 10.2716C87.8884 9.38528 87.0625 8.9421 86.0572 8.9421C85.6263 8.9421 85.2744 9.04217 85.0015 9.24232C84.743 9.42816 84.6138 9.6569 84.6138 9.92852C84.6138 10.4146 84.9585 10.7434 85.6478 10.9149L87.3067 11.3009C89.461 11.787 90.5382 12.8806 90.5382 14.5819C90.5382 15.554 90.1648 16.3403 89.4179 16.9407C88.6855 17.5411 87.6657 17.8413 86.3588 17.8413C84.5204 17.8413 83.0626 17.1623 81.9855 15.8042L83.5366 14.2173C84.3122 15.2323 85.3175 15.7398 86.5527 15.7398C87.6298 15.7398 88.1684 15.3824 88.1684 14.6676C88.1684 14.2102 87.7375 13.8671 86.8758 13.6383Z" fill="black"/>
<path d="M95.615 17.8413C94.5953 17.8413 93.7479 17.5554 93.0729 16.9836C92.3979 16.3975 92.0604 15.6183 92.0604 14.6462C92.0604 13.5311 92.4625 12.6662 93.2668 12.0515C94.0711 11.4367 95.1339 11.1294 96.4552 11.1294C97.1159 11.1294 97.8268 11.2509 98.588 11.4939V10.7863C98.588 10.2716 98.3941 9.85704 98.0063 9.54253C97.6185 9.21372 97.123 9.04932 96.5198 9.04932C95.4139 9.04932 94.5809 9.55683 94.0208 10.5718L92.362 9.02788C92.7497 8.32737 93.317 7.79127 94.0639 7.41958C94.8251 7.03359 95.6509 6.84059 96.5414 6.84059C97.9345 6.84059 99.0332 7.18369 99.8375 7.8699C100.642 8.55611 101.044 9.53538 101.044 10.8077V17.6055H98.6311V16.7906C97.8411 17.4911 96.8358 17.8413 95.615 17.8413ZM94.5163 14.4746C94.5163 14.832 94.6527 15.1251 94.9256 15.3538C95.2129 15.5826 95.6078 15.6969 96.1105 15.6969C97.1446 15.6969 97.9704 15.3967 98.588 14.7963V13.5954C97.8124 13.3095 97.0799 13.1666 96.3906 13.1666C95.8161 13.1666 95.3565 13.2809 95.0118 13.5097C94.6815 13.7384 94.5163 14.0601 94.5163 14.4746Z" fill="black"/>
<path d="M19.1968 4.93673L14.2253 2.07604C12.5986 1.13774 10.6054 1.13774 8.97881 2.07604L3.98434 4.93673C2.38062 5.87503 1.37256 7.61433 1.37256 9.46805V15.2123C1.37256 17.0889 2.38062 18.8053 3.98434 19.7436L8.9559 22.6272C10.5825 23.5655 12.5757 23.5655 14.2024 22.6272L19.1739 19.7436C20.8006 18.8053 21.7857 17.0889 21.7857 15.2123V9.46805C21.8315 7.61433 20.8235 5.87503 19.1968 4.93673ZM11.5906 17.4551C8.77261 17.4551 6.48158 15.1665 6.48158 12.3516C6.48158 9.53671 8.77261 7.24816 11.5906 7.24816C14.4086 7.24816 16.7225 9.53671 16.7225 12.3516C16.7225 15.1665 14.4315 17.4551 11.5906 17.4551Z" fill="black"/>
</g>
</svg>
